<?xml version="1.0" standalone="no"?>
<!DOCTYPE svg PUBLIC "-//W3C//DTD SVG 20010904//EN"
 "http://www.w3.org/TR/2001/REC-SVG-20010904/DTD/svg10.dtd">
<svg version="1.0" xmlns="http://www.w3.org/2000/svg"
 width="225.000000pt" height="225.000000pt" viewBox="0 0 225.000000 225.000000"
 preserveAspectRatio="xMidYMid meet">
<metadata>
Created by potrace 1.10, written by Peter Selinger 2001-2011
</metadata>
<g transform="translate(0.000000,225.000000) scale(0.100000,-0.100000)"
fill="#000000" stroke="none">
<path d="M930 2236 c0 -10 -16 -17 -47 -22 -89 -12 -251 -74 -328 -124 -16
-11 -37 -23 -45 -27 -30 -13 -136 -99 -190 -153 -50 -50 -125 -143 -157 -195
-25 -40 -113 -224 -113 -237 0 -7 -6 -30 -14 -53 -26 -76 -36 -161 -36 -310 0
-149 10 -234 36 -310 8 -23 14 -46 14 -54 0 -23 92 -204 142 -276 72 -107 246
-276 318 -308 8 -4 29 -16 45 -26 83 -53 221 -106 343 -130 69 -14 365 -14
434 0 122 24 260 77 343 130 17 10 37 22 45 26 80 36 307 263 343 343 4 8 16
29 27 45 11 17 23 37 26 45 4 8 19 43 35 78 16 34 29 68 29 74 0 7 6 30 14 53
8 22 18 61 21 88 4 31 11 47 21 47 12 0 14 29 14 175 0 146 -2 175 -14 175
-10 0 -17 16 -21 48 -3 26 -13 65 -21 87 -8 23 -14 46 -14 53 0 13 -88 197
-113 237 -32 51 -102 138 -154 191 -56 57 -162 143 -193 157 -8 4 -28 16 -45
27 -77 50 -239 112 -327 124 -32 5 -48 12 -48 22 0 12 -31 14 -185 14 -154 0
-185 -2 -185 -14z m200 -542 c0 -20 -7 -60 -16 -90 -8 -29 -14 -70 -12 -91 l3
-38 120 -6 c141 -7 179 -22 260 -103 73 -73 95 -127 95 -236 0 -71 -5 -98 -24
-143 -47 -106 -131 -173 -251 -202 -56 -13 -113 -15 -285 -13 l-215 3 1 30 c1
17 8 55 16 85 l15 55 209 5 c227 5 243 9 295 67 58 63 56 162 -4 223 -52 53
-81 60 -268 60 -107 0 -170 4 -174 11 -4 5 0 38 8 72 23 96 37 179 31 188 -3
5 -57 9 -121 9 -106 0 -119 2 -140 22 -28 26 -31 82 -6 110 15 16 36 18 240
18 l223 0 0 -36z m90 -503 c13 -4 33 -21 43 -38 17 -29 17 -34 2 -62 -8 -17
-24 -35 -35 -41 -12 -6 -85 -9 -192 -8 l-173 3 0 63 c0 90 4 92 184 91 80 -1
157 -4 171 -8z m-236 -536 c72 -48 43 -155 -42 -155 -55 1 -82 28 -82 83 0 38
5 49 28 66 33 25 64 26 96 6z m385 -14 c59 -55 26 -141 -54 -141 -45 0 -54 5
-78 40 -21 31 -21 59 1 86 43 51 87 56 131 15z"/>
</g>
</svg>
